<svg xmlns="http://www.w3.org/2000/svg" height="800" width="1200" viewBox="-29.7 -38.5845 257.4 231.507"><g fill-rule="evenodd" fill="none"><path d="M137.932 57.627l15.87-17.805-23.303-5.08 2.375-23.733-21.84 9.585L99 0 86.972 20.592 65.137 11l2.369 23.733L44.2 39.81l15.867 17.81-15.87 17.804 23.303 5.08-2.374 23.732 21.838-9.586L99 115.244l12.027-20.592 21.837 9.591-2.369-23.733 23.304-5.076zm7.698 13.394l-13.746-4.702-9.12-11.854 12.13 4.507zm-36.828 21.17l-8.221 14.076V91.342l8.545-12.47zm-14.4-58.355l-14.146-5.03-8.464-11.428 14.835 6.517zm16.978-9.938l14.834-6.513-8.47 11.42-14.142 5.03zm15.874 11.517l-7.377 10.46.418-15.199 8.592-11.586zM99 88.055l-9.898-14.441L99 60.184l9.897 13.43zM81.397 49.918l-.481-17.521 16.503 5.868v17.052zm19.184-11.653l16.503-5.868-.482 17.522-16.021 5.398zm-29.83-2.857l-1.63-16.321 8.584 11.588.417 15.196zm25.69 22.917L86.547 71.75 69.74 66.795l10.673-13.87zm-7.57 20.545l8.548 12.472v14.928L89.19 92.189zm12.687-20.545l16.03-5.4 10.673 13.87-16.809 4.956zM147.84 41.76l-12.486 14.01-14.725-5.471 8.846-12.544zM99 6.27l9.473 16.21L99 34.584l-9.467-12.105zM50.163 41.747l18.368-4 8.84 12.55-14.723 5.463zm12.941 17.217l12.135-4.502-9.122 11.855-13.752 4.696zM53.06 74.118l14.054-4.799 14.638 4.315-12.612 3.99zm17.624 6.334l14.948-4.73.381 15.89-17.2 7.552zm41.295 11.164l.387-15.893 14.946 4.735 1.868 18.713zm16.877-13.986l-12.612-3.995 14.643-4.316 14.056 4.808z" fill="#D10"/><path fill="#333" d="M0 127.355h6.825l3.212 17.73 4.734-17.73h6l5.62 18.04 3.286-18.04h6.485l-5.548 26.53h-7.487l-4.979-16.552-5.093 16.551H5.2zm198 26.53h-6.825l-3.207-17.795-4.738 17.794h-6.003l-5.595-18.036-3.308 18.036h-6.487l5.549-26.53h7.486l4.978 16.566 5.098-16.565h7.851zm-147.545-26.99c8.635 0 13.14 5.21 13.14 13.724 0 8.438-4.58 13.719-13.14 13.719-8.557 0-13.137-5.281-13.137-13.719 0-8.513 4.504-13.723 13.137-13.723zm0 22.198c4.243 0 5.93-4.105 5.93-8.474 0-4.603-1.687-8.477-5.93-8.477-4.243 0-5.931 3.874-5.931 8.477 0 4.37 1.688 8.474 5.93 8.474zM67.5 127.351h6.983v21.286h10.811v5.242H67.5zm20.685 0h17.525v5.018H95.166v5.817h10.094v5.014H95.166v10.679h-6.981zm21.176 0h12.462c4.656 0 8.448 2.127 8.448 6.692 0 3.536-1.652 5.89-5.03 6.688v.078c2.25.608 2.403 2.623 3.716 5.854l2.55 7.216h-7.28l-1.5-4.786c-1.43-4.56-2.328-5.702-4.918-5.702h-1.467v10.488h-6.981zm6.98 11.026h1.844c2.25 0 5.104-.077 5.104-3.081 0-2.47-2.44-2.927-5.104-2.927h-1.843zm25.744-11.026h8.561l10.097 26.528h-7.658l-1.952-5.66H141.3l-2.066 5.66h-7.097zm4.281 5.476h-.073l-3.378 10.373h6.566z"/></g></svg>